<?xml version="1.0" standalone="no"?><!DOCTYPE svg PUBLIC "-//W3C//DTD SVG 1.1//EN" "http://www.w3.org/Graphics/SVG/1.1/DTD/svg11.dtd"><svg class="icon" width="200px" height="156.93px" viewBox="0 0 1305 1024" version="1.1" xmlns="http://www.w3.org/2000/svg"><path d="M1028.3776 19.456l-614.656 50.5088v-14.848c0-33.024-26.752-57.6-59.776-54.912L59.8016 24.3456C26.752 27.0848 0 56.0896 0 89.088v868.9152c0 39.552 32.0768 69.0176 71.68 65.7408l956.6976-78.592c39.6032-3.2512 71.68-37.9648 71.68-77.5424V85.248c0-39.6032-32.0768-69.0432-71.68-65.792" fill="#CCA352" /><path d="M1068.1856 900.608L111.0528 970.8288c-10.2656 0.768-17.8176-6.0672-16.8448-15.2576l81.3568-692.5824c0.9472-9.1648 10.0096-17.152 20.2752-17.92l957.1584-70.3232c10.2656-0.7424 17.8176 6.0928 16.8704 15.2576l-81.3824 692.5824c-0.9472 9.1648-10.0608 17.2288-20.3008 17.9712" fill="#F1F1F1" /><path d="M1042.3552 918.528L65.7408 991.5648c-9.984 0.768-17.2544-5.9904-16.256-15.0528l84.0192-676.4288c1.024-9.0624 9.856-16.9472 19.7888-17.7152L1129.984 209.3568c9.984-0.7424 17.2288 5.9648 16.2304 15.0528l-84.0192 676.4032c-0.9984 9.0112-9.856 16.9728-19.84 17.7152" fill="#FFFFFF" /><path d="M1046.0672 952.576l-974.336 71.168c-40.32 2.9696-65.8176-23.68-56.9344-59.5712L183.552 371.456c2.9696-12.0064 16.256-22.4512 29.696-23.4496l1071.616-78.2848c13.4656-1.024 21.9648 7.9104 18.9952 19.8912L1135.104 882.3296c-8.8832 35.84-48.768 67.3024-89.088 70.2464" fill="#FFCC66" /></svg>